<svg width="629" height="330" viewBox="0 0 629 330" fill="none" xmlns="http://www.w3.org/2000/svg">
<g filter="url(#filter0_d)">
<ellipse cx="167.373" cy="156.347" rx="72.1908" ry="71.5942" fill="#F7FEFF"/>
<ellipse cx="278.925" cy="122.599" rx="98.7403" ry="97.8454" fill="#F7FEFF"/>
<ellipse cx="315.375" cy="233.347" rx="72.1908" ry="71.5942" fill="#F7FEFF"/>
<path d="M369.184 260.753C369.184 293.812 346.17 304.753 316.07 304.753C285.97 304.753 260.184 295.36 260.184 260.753C260.184 260.753 260.646 295.36 316.07 295.36C369.184 293.812 369.184 260.753 369.184 260.753Z" fill="#D5F9FF"/>
<ellipse cx="215.961" cy="206.908" rx="98.7403" ry="97.8454" fill="#F7FEFF"/>
<ellipse cx="92.3733" cy="233.347" rx="72.1908" ry="71.5942" fill="#F7FEFF"/>
<ellipse cx="405.684" cy="193.753" rx="112.5" ry="111" fill="#F7FEFF"/>
<ellipse cx="536.375" cy="233.347" rx="72.1908" ry="71.5942" fill="#F7FEFF"/>
<path d="M282.184 259.753C282.184 292.812 255.158 305.753 219.812 305.753C184.465 305.753 154.184 294.36 154.184 259.753C154.184 259.753 154.727 294.36 219.812 294.36C282.184 292.812 282.184 259.753 282.184 259.753Z" fill="#D7FAFF"/>
<path d="M470.184 260.753C470.184 293.812 442.313 304.753 405.862 304.753C369.411 304.753 338.184 295.36 338.184 260.753C338.184 260.753 338.744 295.36 405.862 295.36C470.184 293.812 470.184 260.753 470.184 260.753Z" fill="#D5F9FF"/>
<path d="M154.183 258.753C154.183 292.188 129.268 305.753 96.6828 305.753C64.6827 304.753 39.1827 292.253 25.6827 260.753C25.6827 260.753 42.6827 292.753 96.6828 293.753C154.183 292.188 154.183 258.753 154.183 258.753Z" fill="#D5F9FF"/>
<path d="M477.184 258.753C477.184 292.188 502.099 305.753 534.684 305.753C567.269 305.753 592.684 289.253 604.184 257.753C604.184 257.753 588.684 292.753 534.684 293.753C477.184 292.188 477.184 258.753 477.184 258.753Z" fill="#D5F9FF"/>
<circle r="48.5" transform="matrix(-1 0 0 1 138.684 256.253)" fill="#F7FEFF"/>
<circle r="48.5" transform="matrix(-1 0 0 1 483.684 256.253)" fill="#F7FEFF"/>
<path d="M182.182 260.753C182.182 293.812 161.713 304.753 140.174 304.753C118.635 304.753 96.1824 295.36 96.1824 260.753C96.1824 260.753 100.513 295.36 140.174 295.36C178.182 293.812 182.182 260.753 182.182 260.753Z" fill="#D5F9FF"/>
<path d="M526.184 260.753C526.184 293.812 505.715 304.753 484.176 304.753C462.637 304.753 440.184 295.36 440.184 260.753C440.184 260.753 444.515 295.36 484.176 295.36C522.184 293.812 526.184 260.753 526.184 260.753Z" fill="#D5F9FF"/>
<path d="M20.1824 229.253C22.6804 197.753 42.1824 173.753 71.8555 164.612C96.9757 156.874 135.461 162.77 144.42 189.855C144.42 189.855 118.684 165.463 75.757 177.407C26.6843 194.753 20.1824 229.253 20.1824 229.253Z" fill="white"/>
<path d="M496.682 183.253C496.682 183.253 498.182 168.753 518.725 163.365C543.682 155.753 580.682 167.253 596.182 193.253C596.182 193.253 565.182 168.753 523.682 172.753C504.215 174.63 496.682 183.253 496.682 183.253Z" fill="white"/>
<path d="M95.8635 150.54C95.8635 121.54 118.364 97.2172 146.535 87.8989C171.49 79.6444 210.14 86.0564 219.099 113.141C219.099 113.141 193.364 88.7498 150.436 100.694C101.364 118.04 95.8635 150.54 95.8635 150.54Z" fill="white"/>
<path d="M324.682 147.753C329.682 124.253 346.182 91.6102 386.682 83.2531C418.182 76.7531 462.182 88.7531 484.682 115.253C484.682 115.253 444.486 88.7025 390.182 97.7531C345.182 105.253 324.682 147.753 324.682 147.753Z" fill="white"/>
<path d="M186.184 89.7531C195.182 56.7532 230.183 31.2532 257.184 26.2531C290.682 20.0497 327.182 26.7532 354.182 59.2532C354.182 59.2532 305.98 29.6237 260.184 43.2532C232.182 51.5866 208.682 74.2532 203.682 94.7532L186.184 89.7531Z" fill="white"/>
</g>
<defs>
<filter id="filter0_d" x="0.182373" y="8.16968" width="628.383" height="321.583" filterUnits="userSpaceOnUse" color-interpolation-filters="sRGB">
<feFlood flood-opacity="0" result="BackgroundImageFix"/>
<feColorMatrix in="SourceAlpha" type="matrix" values="0 0 0 0 0 0 0 0 0 0 0 0 0 0 0 0 0 0 127 0"/>
<feOffset dy="4"/>
<feGaussianBlur stdDeviation="10"/>
<feColorMatrix type="matrix" values="0 0 0 0 0 0 0 0 0 0 0 0 0 0 0 0 0 0 0.25 0"/>
<feBlend mode="normal" in2="BackgroundImageFix" result="effect1_dropShadow"/>
<feBlend mode="normal" in="SourceGraphic" in2="effect1_dropShadow" result="shape"/>
</filter>
</defs>
</svg>
