<svg width="485" height="247" viewBox="0 0 485 247" fill="none" xmlns="http://www.w3.org/2000/svg">
<ellipse rx="58.1058" ry="57.6256" transform="matrix(-1 0 0 1 355.112 125.843)" fill="#F7FEFF"/>
<ellipse rx="79.4753" ry="78.7549" transform="matrix(-1 0 0 1 265.325 98.6785)" fill="#F7FEFF"/>
<ellipse rx="58.1058" ry="57.6256" transform="matrix(-1 0 0 1 235.987 187.819)" fill="#F7FEFF"/>
<path d="M192.676 209.878C192.676 236.487 211.201 245.293 235.428 245.293C259.654 245.293 280.409 237.733 280.409 209.878C280.409 209.878 280.038 237.733 235.428 237.733C192.676 236.487 192.676 209.878 192.676 209.878Z" fill="#D5F9FF"/>
<ellipse rx="79.4753" ry="78.7549" transform="matrix(-1 0 0 1 316.004 166.538)" fill="#F7FEFF"/>
<ellipse rx="58.1058" ry="57.6256" transform="matrix(-1 0 0 1 415.479 187.819)" fill="#F7FEFF"/>
<ellipse rx="90.5503" ry="89.3429" transform="matrix(-1 0 0 1 163.298 155.95)" fill="#F7FEFF"/>
<ellipse rx="58.1058" ry="57.6256" transform="matrix(-1 0 0 1 58.1057 187.819)" fill="#F7FEFF"/>
<path d="M262.702 209.073C262.702 235.682 284.455 246.098 312.905 246.098C341.355 246.098 365.728 236.928 365.728 209.073C365.728 209.073 365.291 236.928 312.905 236.928C262.702 235.682 262.702 209.073 262.702 209.073Z" fill="#D7FAFF"/>
<path d="M111.382 209.878C111.382 236.487 133.816 245.293 163.154 245.293C192.493 245.293 217.628 237.733 217.628 209.878C217.628 209.878 217.178 237.733 163.154 237.733C111.382 236.487 111.382 209.878 111.382 209.878Z" fill="#D5F9FF"/>
<path d="M365.729 208.268C365.729 235.179 385.783 246.098 412.01 246.098C437.767 245.293 458.291 235.232 469.157 209.878C469.157 209.878 455.474 235.634 412.01 236.439C365.729 235.179 365.729 208.268 365.729 208.268Z" fill="#D5F9FF"/>
<path d="M105.748 208.268C105.748 235.179 85.6943 246.098 59.4671 246.098C33.2399 246.098 12.7833 232.817 3.5271 207.463C3.5271 207.463 16.0029 235.634 59.4671 236.439C105.748 235.179 105.748 208.268 105.748 208.268Z" fill="#D5F9FF"/>
<circle cx="378.204" cy="206.256" r="39.0372" fill="#F7FEFF"/>
<circle cx="100.516" cy="206.256" r="39.0372" fill="#F7FEFF"/>
<path d="M343.192 209.878C343.192 236.487 359.668 245.293 377.005 245.293C394.341 245.293 412.413 237.733 412.413 209.878C412.413 209.878 408.927 237.733 377.005 237.733C346.412 236.487 343.192 209.878 343.192 209.878Z" fill="#D5F9FF"/>
<path d="M66.3082 209.878C66.3082 236.487 82.7837 245.293 100.12 245.293C117.457 245.293 135.529 237.733 135.529 209.878C135.529 209.878 132.043 237.733 100.12 237.733C69.5277 236.487 66.3082 209.878 66.3082 209.878Z" fill="#D5F9FF"/>
<path d="M473.585 184.524C471.574 159.17 455.877 139.852 431.993 132.495C411.774 126.267 380.798 131.012 373.587 152.812C373.587 152.812 394.301 133.18 428.853 142.794C468.351 156.755 473.585 184.524 473.585 184.524Z" fill="white"/>
<path d="M90.054 147.499C90.054 147.499 88.8466 135.828 72.3117 131.491C52.2241 125.364 22.4431 134.621 9.96729 155.548C9.96729 155.548 34.9189 135.828 68.3219 139.048C83.991 140.558 90.054 147.499 90.054 147.499Z" fill="white"/>
<path d="M412.67 121.168C412.67 97.8263 394.56 78.2492 371.885 70.749C351.798 64.105 320.69 69.2661 313.479 91.0665C313.479 91.0665 334.193 71.4339 368.745 81.0476C408.243 95.0092 412.67 121.168 412.67 121.168Z" fill="white"/>
<path d="M228.495 118.925C224.471 100.01 211.19 73.7363 178.592 67.0097C153.238 61.7779 117.823 71.4366 99.7129 92.7662C99.7129 92.7662 132.067 71.3959 175.775 78.6807C211.995 84.7173 228.495 118.925 228.495 118.925Z" fill="white"/>
<path d="M339.971 72.2415C332.729 45.6801 304.557 25.1554 282.824 21.1309C255.862 16.1378 226.483 21.5334 204.751 47.6923C204.751 47.6923 243.549 23.8438 280.41 34.8141C302.948 41.5216 321.863 59.7657 325.887 76.266L339.971 72.2415Z" fill="white"/>
</svg>
