<svg width="64" height="64" viewBox="0 0 64 64" fill="none" xmlns="http://www.w3.org/2000/svg">
<path d="M37.4708 58.3604C34.3919 61.117 29.7461 61.1624 26.6139 58.4665L26.4523 58.3275C9.59866 42.9667 0 33.3454 0 20.912C0 10.7812 8.70929 2.82117 17.2351 2.82117C23.4245 2.82117 28.5218 4.44242 32.0889 8.65266C35.656 4.44242 39.9296 2.82117 46.6881 2.82117C55.3561 2.82117 63.9232 10.7812 63.9232 20.912C63.9232 33.3454 54.3245 42.9667 37.4708 58.3604Z" fill="url(#paint0_linear)"/>
<path d="M31.8343 52.2279L28.4738 49.2968C16.5385 38.9266 8.65894 32.0872 8.65894 23.6933C8.65894 16.8539 14.2674 11.4801 21.4054 11.4801C25.4379 11.4801 29.3082 13.2788 31.8343 16.1211C34.3604 13.2788 38.2307 11.4801 42.2632 11.4801C49.4012 11.4801 55.0096 16.8539 55.0096 23.6933C55.0096 32.0872 47.13 38.9266 35.1947 49.319L31.8343 52.2279Z" fill="url(#paint1_linear)"/>
<path d="M50.9216 14.4658L54.3716 11.4247H42.033V22.9548L45.5803 19.6399C48.6187 21.7442 50.5929 25.0879 50.5929 28.8929C50.5929 30.7809 49.9486 34.9443 49.0849 36.5153C52.5754 33.8983 55.2198 28.1578 55.2198 23.8484C55.2198 20.3142 53.6004 16.5712 50.9216 14.4658Z" fill="white"/>
<path d="M13.2859 18.3624C13.2859 16.4215 13.7616 14.9111 14.6253 13.2961C11.0163 15.5481 8.65894 19.118 8.65894 23.5479C8.65894 27.2815 9.8311 31.4151 12.5148 33.7264L9.49179 36.3192L21.7687 37.4303L21.8304 24.4665L18.2831 27.8741C15.2601 25.711 13.2859 22.2738 13.2859 18.3624Z" fill="white"/>
<defs>
<linearGradient id="paint0_linear" x1="31.9616" y1="2.82117" x2="43.4566" y2="58.3806" gradientUnits="userSpaceOnUse">
<stop offset="0.359375" stop-color="#CF71F0"/>
<stop offset="1" stop-color="#9870E6"/>
</linearGradient>
<linearGradient id="paint1_linear" x1="31.8343" y1="11.4801" x2="31.8343" y2="52.2279" gradientUnits="userSpaceOnUse">
<stop offset="0.359375" stop-color="#B413ED"/>
<stop offset="1" stop-color="#6725E4"/>
</linearGradient>
</defs>
</svg>
